<svg xmlns="http://www.w3.org/2000/svg" xmlns:xlink="http://www.w3.org/1999/xlink" xmlns:s="https://github.com/nturley/netlistsvg" width="1227" height="725.5">
  <style>svg {
    stroke:#000;
    fill:none;
  }
  text {
    fill:#000;
    stroke:none;
    font-size:10px;
    font-weight: bold;
    font-family: "Courier New", monospace;
  }
  .nodelabel {
    text-anchor: middle;
  }
  .inputPortLabel {
    text-anchor: end;
  }
  .splitjoinBody {
    fill:#000;
  }</style>
  <g s:type="generic" transform="translate(583.5,400)" s:width="30" s:height="40" id="cell_and_beq">
    <text x="15" y="-4" class="nodelabel cell_and_beq" s:attribute="ref">n_input_and</text>
    <rect width="30" height="20" s:generic="body" class="cell_and_beq"/>
    <g transform="translate(0,10)" s:x="0" s:y="10" s:pid="in0" id="port_and_beq~a">
      <text x="-3" y="-4" class="inputPortLabel cell_and_beq">a</text>
    </g>
    <g transform="translate(30,10)" s:x="30" s:y="10" s:pid="out0" id="port_and_beq~out">
      <text x="5" y="-4" style="fill:#000; stroke:none" class="cell_and_beq">out</text>
    </g>
  </g>
  <g s:type="generic" transform="translate(560,325)" s:width="30" s:height="40" id="cell_and_i_type_alu">
    <text x="15" y="-4" class="nodelabel cell_and_i_type_alu" s:attribute="ref">n_input_and</text>
    <rect width="30" height="20" s:generic="body" class="cell_and_i_type_alu"/>
    <g transform="translate(0,10)" s:x="0" s:y="10" s:pid="in0" id="port_and_i_type_alu~a">
      <text x="-3" y="-4" class="inputPortLabel cell_and_i_type_alu">a</text>
    </g>
    <g transform="translate(30,10)" s:x="30" s:y="10" s:pid="out0" id="port_and_i_type_alu~out">
      <text x="5" y="-4" style="fill:#000; stroke:none" class="cell_and_i_type_alu">out</text>
    </g>
  </g>
  <g s:type="generic" transform="translate(583.5,122.5)" s:width="30" s:height="40" id="cell_and_jal">
    <text x="15" y="-4" class="nodelabel cell_and_jal" s:attribute="ref">n_input_and</text>
    <rect width="30" height="20" s:generic="body" class="cell_and_jal"/>
    <g transform="translate(0,10)" s:x="0" s:y="10" s:pid="in0" id="port_and_jal~a">
      <text x="-3" y="-4" class="inputPortLabel cell_and_jal">a</text>
    </g>
    <g transform="translate(30,10)" s:x="30" s:y="10" s:pid="out0" id="port_and_jal~out">
      <text x="5" y="-4" style="fill:#000; stroke:none" class="cell_and_jal">out</text>
    </g>
  </g>
  <g s:type="generic" transform="translate(583.5,663.5)" s:width="30" s:height="40" id="cell_and_lw">
    <text x="15" y="-4" class="nodelabel cell_and_lw" s:attribute="ref">n_input_and</text>
    <rect width="30" height="20" s:generic="body" class="cell_and_lw"/>
    <g transform="translate(0,10)" s:x="0" s:y="10" s:pid="in0" id="port_and_lw~a">
      <text x="-3" y="-4" class="inputPortLabel cell_and_lw">a</text>
    </g>
    <g transform="translate(30,10)" s:x="30" s:y="10" s:pid="out0" id="port_and_lw~out">
      <text x="5" y="-4" style="fill:#000; stroke:none" class="cell_and_lw">out</text>
    </g>
  </g>
  <g s:type="generic" transform="translate(583.5,511.5)" s:width="30" s:height="40" id="cell_and_r_type">
    <text x="15" y="-4" class="nodelabel cell_and_r_type" s:attribute="ref">n_input_and</text>
    <rect width="30" height="20" s:generic="body" class="cell_and_r_type"/>
    <g transform="translate(0,10)" s:x="0" s:y="10" s:pid="in0" id="port_and_r_type~a">
      <text x="-3" y="-4" class="inputPortLabel cell_and_r_type">a</text>
    </g>
    <g transform="translate(30,10)" s:x="30" s:y="10" s:pid="out0" id="port_and_r_type~out">
      <text x="5" y="-4" style="fill:#000; stroke:none" class="cell_and_r_type">out</text>
    </g>
  </g>
  <g s:type="generic" transform="translate(583.5,588.5)" s:width="30" s:height="40" id="cell_and_sw">
    <text x="15" y="-4" class="nodelabel cell_and_sw" s:attribute="ref">n_input_and</text>
    <rect width="30" height="20" s:generic="body" class="cell_and_sw"/>
    <g transform="translate(0,10)" s:x="0" s:y="10" s:pid="in0" id="port_and_sw~a">
      <text x="-3" y="-4" class="inputPortLabel cell_and_sw">a</text>
    </g>
    <g transform="translate(30,10)" s:x="30" s:y="10" s:pid="out0" id="port_and_sw~out">
      <text x="5" y="-4" style="fill:#000; stroke:none" class="cell_and_sw">out</text>
    </g>
  </g>
  <g s:type="generic" transform="translate(166,22)" s:width="30" s:height="40" id="cell_buf1[0]">
    <text x="15" y="-4" class="nodelabel cell_buf1[0]" s:attribute="ref">buf</text>
    <rect width="30" height="20" s:generic="body" class="cell_buf1[0]"/>
    <g transform="translate(0,10)" s:x="0" s:y="10" s:pid="in0" id="port_buf1[0]~a">
      <text x="-3" y="-4" class="inputPortLabel cell_buf1[0]">a</text>
    </g>
    <g transform="translate(30,10)" s:x="30" s:y="10" s:pid="out0" id="port_buf1[0]~out">
      <text x="5" y="-4" style="fill:#000; stroke:none" class="cell_buf1[0]">out</text>
    </g>
  </g>
  <g s:type="generic" transform="translate(166,243.5)" s:width="30" s:height="40" id="cell_buf1[1]">
    <text x="15" y="-4" class="nodelabel cell_buf1[1]" s:attribute="ref">buf</text>
    <rect width="30" height="20" s:generic="body" class="cell_buf1[1]"/>
    <g transform="translate(0,10)" s:x="0" s:y="10" s:pid="in0" id="port_buf1[1]~a">
      <text x="-3" y="-4" class="inputPortLabel cell_buf1[1]">a</text>
    </g>
    <g transform="translate(30,10)" s:x="30" s:y="10" s:pid="out0" id="port_buf1[1]~out">
      <text x="5" y="-4" style="fill:#000; stroke:none" class="cell_buf1[1]">out</text>
    </g>
  </g>
  <g s:type="generic" transform="translate(408,84.5)" s:width="30" s:height="40" id="cell_buf1[2]">
    <text x="15" y="-4" class="nodelabel cell_buf1[2]" s:attribute="ref">buf</text>
    <rect width="30" height="20" s:generic="body" class="cell_buf1[2]"/>
    <g transform="translate(0,10)" s:x="0" s:y="10" s:pid="in0" id="port_buf1[2]~a">
      <text x="-3" y="-4" class="inputPortLabel cell_buf1[2]">a</text>
    </g>
    <g transform="translate(30,10)" s:x="30" s:y="10" s:pid="out0" id="port_buf1[2]~out">
      <text x="5" y="-4" style="fill:#000; stroke:none" class="cell_buf1[2]">out</text>
    </g>
  </g>
  <g s:type="generic" transform="translate(408,152.5)" s:width="30" s:height="40" id="cell_buf1[3]">
    <text x="15" y="-4" class="nodelabel cell_buf1[3]" s:attribute="ref">buf</text>
    <rect width="30" height="20" s:generic="body" class="cell_buf1[3]"/>
    <g transform="translate(0,10)" s:x="0" s:y="10" s:pid="in0" id="port_buf1[3]~a">
      <text x="-3" y="-4" class="inputPortLabel cell_buf1[3]">a</text>
    </g>
    <g transform="translate(30,10)" s:x="30" s:y="10" s:pid="out0" id="port_buf1[3]~out">
      <text x="5" y="-4" style="fill:#000; stroke:none" class="cell_buf1[3]">out</text>
    </g>
  </g>
  <g s:type="generic" transform="translate(301,470)" s:width="30" s:height="40" id="cell_buf1[4]">
    <text x="15" y="-4" class="nodelabel cell_buf1[4]" s:attribute="ref">buf</text>
    <rect width="30" height="20" s:generic="body" class="cell_buf1[4]"/>
    <g transform="translate(0,10)" s:x="0" s:y="10" s:pid="in0" id="port_buf1[4]~a">
      <text x="-3" y="-4" class="inputPortLabel cell_buf1[4]">a</text>
    </g>
    <g transform="translate(30,10)" s:x="30" s:y="10" s:pid="out0" id="port_buf1[4]~out">
      <text x="5" y="-4" style="fill:#000; stroke:none" class="cell_buf1[4]">out</text>
    </g>
  </g>
  <g s:type="generic" transform="translate(166,501.5)" s:width="30" s:height="40" id="cell_buf1[5]">
    <text x="15" y="-4" class="nodelabel cell_buf1[5]" s:attribute="ref">buf</text>
    <rect width="30" height="20" s:generic="body" class="cell_buf1[5]"/>
    <g transform="translate(0,10)" s:x="0" s:y="10" s:pid="in0" id="port_buf1[5]~a">
      <text x="-3" y="-4" class="inputPortLabel cell_buf1[5]">a</text>
    </g>
    <g transform="translate(30,10)" s:x="30" s:y="10" s:pid="out0" id="port_buf1[5]~out">
      <text x="5" y="-4" style="fill:#000; stroke:none" class="cell_buf1[5]">out</text>
    </g>
  </g>
  <g s:type="generic" transform="translate(408,212)" s:width="30" s:height="40" id="cell_buf1[6]">
    <text x="15" y="-4" class="nodelabel cell_buf1[6]" s:attribute="ref">buf</text>
    <rect width="30" height="20" s:generic="body" class="cell_buf1[6]"/>
    <g transform="translate(0,10)" s:x="0" s:y="10" s:pid="in0" id="port_buf1[6]~a">
      <text x="-3" y="-4" class="inputPortLabel cell_buf1[6]">a</text>
    </g>
    <g transform="translate(30,10)" s:x="30" s:y="10" s:pid="out0" id="port_buf1[6]~out">
      <text x="5" y="-4" style="fill:#000; stroke:none" class="cell_buf1[6]">out</text>
    </g>
  </g>
  <g s:type="generic" transform="translate(968,284.5)" s:width="30" s:height="40" id="cell_mux1">
    <text x="15" y="-4" class="nodelabel cell_mux1" s:attribute="ref">mux</text>
    <rect width="30" height="40" s:generic="body" class="cell_mux1"/>
    <g transform="translate(0,10)" s:x="0" s:y="10" s:pid="in0" id="port_mux1~data_list">
      <text x="-3" y="-4" class="inputPortLabel cell_mux1">data_list</text>
    </g>
    <g transform="translate(0,30)" s:x="0" s:y="10" s:pid="in0" id="port_mux1~select">
      <text x="-3" y="-4" class="inputPortLabel cell_mux1">select</text>
    </g>
    <g transform="translate(30,10)" s:x="30" s:y="10" s:pid="out0" id="port_mux1~data_out">
      <text x="5" y="-4" style="fill:#000; stroke:none" class="cell_mux1">data_out</text>
    </g>
  </g>
  <g s:type="generic" transform="translate(166,311.5)" s:width="30" s:height="40" id="cell_not1[2]">
    <text x="15" y="-4" class="nodelabel cell_not1[2]" s:attribute="ref">not</text>
    <rect width="30" height="20" s:generic="body" class="cell_not1[2]"/>
    <g transform="translate(0,10)" s:x="0" s:y="10" s:pid="in0" id="port_not1[2]~a">
      <text x="-3" y="-4" class="inputPortLabel cell_not1[2]">a</text>
    </g>
    <g transform="translate(30,10)" s:x="30" s:y="10" s:pid="out0" id="port_not1[2]~out">
      <text x="5" y="-4" style="fill:#000; stroke:none" class="cell_not1[2]">out</text>
    </g>
  </g>
  <g s:type="generic" transform="translate(166,379.5)" s:width="30" s:height="40" id="cell_not1[3]">
    <text x="15" y="-4" class="nodelabel cell_not1[3]" s:attribute="ref">not</text>
    <rect width="30" height="20" s:generic="body" class="cell_not1[3]"/>
    <g transform="translate(0,10)" s:x="0" s:y="10" s:pid="in0" id="port_not1[3]~a">
      <text x="-3" y="-4" class="inputPortLabel cell_not1[3]">a</text>
    </g>
    <g transform="translate(30,10)" s:x="30" s:y="10" s:pid="out0" id="port_not1[3]~out">
      <text x="5" y="-4" style="fill:#000; stroke:none" class="cell_not1[3]">out</text>
    </g>
  </g>
  <g s:type="generic" transform="translate(166,447.5)" s:width="30" s:height="40" id="cell_not1[4]">
    <text x="15" y="-4" class="nodelabel cell_not1[4]" s:attribute="ref">not</text>
    <rect width="30" height="20" s:generic="body" class="cell_not1[4]"/>
    <g transform="translate(0,10)" s:x="0" s:y="10" s:pid="in0" id="port_not1[4]~a">
      <text x="-3" y="-4" class="inputPortLabel cell_not1[4]">a</text>
    </g>
    <g transform="translate(30,10)" s:x="30" s:y="10" s:pid="out0" id="port_not1[4]~out">
      <text x="5" y="-4" style="fill:#000; stroke:none" class="cell_not1[4]">out</text>
    </g>
  </g>
  <g s:type="generic" transform="translate(408,673.5)" s:width="30" s:height="40" id="cell_not1[5]">
    <text x="15" y="-4" class="nodelabel cell_not1[5]" s:attribute="ref">not</text>
    <rect width="30" height="20" s:generic="body" class="cell_not1[5]"/>
    <g transform="translate(0,10)" s:x="0" s:y="10" s:pid="in0" id="port_not1[5]~a">
      <text x="-3" y="-4" class="inputPortLabel cell_not1[5]">a</text>
    </g>
    <g transform="translate(30,10)" s:x="30" s:y="10" s:pid="out0" id="port_not1[5]~out">
      <text x="5" y="-4" style="fill:#000; stroke:none" class="cell_not1[5]">out</text>
    </g>
  </g>
  <g s:type="generic" transform="translate(301,610)" s:width="30" s:height="40" id="cell_not1[6]">
    <text x="15" y="-4" class="nodelabel cell_not1[6]" s:attribute="ref">not</text>
    <rect width="30" height="20" s:generic="body" class="cell_not1[6]"/>
    <g transform="translate(0,10)" s:x="0" s:y="10" s:pid="in0" id="port_not1[6]~a">
      <text x="-3" y="-4" class="inputPortLabel cell_not1[6]">a</text>
    </g>
    <g transform="translate(30,10)" s:x="30" s:y="10" s:pid="out0" id="port_not1[6]~out">
      <text x="5" y="-4" style="fill:#000; stroke:none" class="cell_not1[6]">out</text>
    </g>
  </g>
  <g s:type="generic" transform="translate(776,350)" s:width="30" s:height="40" id="cell_priority_encoder1">
    <text x="15" y="-4" class="nodelabel cell_priority_encoder1" s:attribute="ref">priority_encoder</text>
    <rect width="30" height="40" s:generic="body" class="cell_priority_encoder1"/>
    <g transform="translate(0,10)" s:x="0" s:y="10" s:pid="in0" id="port_priority_encoder1~a">
      <text x="-3" y="-4" class="inputPortLabel cell_priority_encoder1">a</text>
    </g>
    <g transform="translate(30,10)" s:x="30" s:y="10" s:pid="out0" id="port_priority_encoder1~out">
      <text x="5" y="-4" style="fill:#000; stroke:none" class="cell_priority_encoder1">out</text>
    </g>
    <g transform="translate(30,30)" s:x="30" s:y="10" s:pid="out0" id="port_priority_encoder1~valid">
      <text x="5" y="-4" style="fill:#000; stroke:none" class="cell_priority_encoder1">valid</text>
    </g>
  </g>
  <g s:type="inputExt" transform="translate(12,55)" s:width="30" s:height="20" id="cell_op">
    <text x="15" y="-4" class="nodelabel cell_op" s:attribute="ref">op</text>
    <s:alias val="$_inputExt_"/>
    <path d="M0,0 L0,20 L15,20 L30,10 L15,0 Z" class="cell_op"/>
    <g s:x="28" s:y="10" s:pid="Y"/>
  </g>
  <g s:type="outputExt" transform="translate(1155,230)" s:width="30" s:height="20" id="cell_branch">
    <text x="15" y="-4" class="nodelabel cell_branch" s:attribute="ref">branch</text>
    <s:alias val="$_outputExt_"/>
    <path d="M30,0 L30,20 L15,20 L0,10 L15,0 Z" class="cell_branch"/>
    <g s:x="0" s:y="10" s:pid="A"/>
  </g>
  <g s:type="outputExt" transform="translate(1155,295)" s:width="30" s:height="20" id="cell_jump">
    <text x="15" y="-4" class="nodelabel cell_jump" s:attribute="ref">jump</text>
    <s:alias val="$_outputExt_"/>
    <path d="M30,0 L30,20 L15,20 L0,10 L15,0 Z" class="cell_jump"/>
    <g s:x="0" s:y="10" s:pid="A"/>
  </g>
  <g s:type="outputExt" transform="translate(1155,360)" s:width="30" s:height="20" id="cell_result_src">
    <text x="15" y="-4" class="nodelabel cell_result_src" s:attribute="ref">result_src</text>
    <s:alias val="$_outputExt_"/>
    <path d="M30,0 L30,20 L15,20 L0,10 L15,0 Z" class="cell_result_src"/>
    <g s:x="0" s:y="10" s:pid="A"/>
  </g>
  <g s:type="outputExt" transform="translate(1155,425)" s:width="30" s:height="20" id="cell_mem_write">
    <text x="15" y="-4" class="nodelabel cell_mem_write" s:attribute="ref">mem_write</text>
    <s:alias val="$_outputExt_"/>
    <path d="M30,0 L30,20 L15,20 L0,10 L15,0 Z" class="cell_mem_write"/>
    <g s:x="0" s:y="10" s:pid="A"/>
  </g>
  <g s:type="outputExt" transform="translate(1155,490)" s:width="30" s:height="20" id="cell_alu_src">
    <text x="15" y="-4" class="nodelabel cell_alu_src" s:attribute="ref">alu_src</text>
    <s:alias val="$_outputExt_"/>
    <path d="M30,0 L30,20 L15,20 L0,10 L15,0 Z" class="cell_alu_src"/>
    <g s:x="0" s:y="10" s:pid="A"/>
  </g>
  <g s:type="outputExt" transform="translate(1155,555)" s:width="30" s:height="20" id="cell_imm_src">
    <text x="15" y="-4" class="nodelabel cell_imm_src" s:attribute="ref">imm_src</text>
    <s:alias val="$_outputExt_"/>
    <path d="M30,0 L30,20 L15,20 L0,10 L15,0 Z" class="cell_imm_src"/>
    <g s:x="0" s:y="10" s:pid="A"/>
  </g>
  <g s:type="outputExt" transform="translate(1155,620)" s:width="30" s:height="20" id="cell_reg_write">
    <text x="15" y="-4" class="nodelabel cell_reg_write" s:attribute="ref">reg_write</text>
    <s:alias val="$_outputExt_"/>
    <path d="M30,0 L30,20 L15,20 L0,10 L15,0 Z" class="cell_reg_write"/>
    <g s:x="0" s:y="10" s:pid="A"/>
  </g>
  <g s:type="outputExt" transform="translate(1155,685)" s:width="30" s:height="20" id="cell_alu_op">
    <text x="15" y="-4" class="nodelabel cell_alu_op" s:attribute="ref">alu_op</text>
    <s:alias val="$_outputExt_"/>
    <path d="M30,0 L30,20 L15,20 L0,10 L15,0 Z" class="cell_alu_op"/>
    <g s:x="0" s:y="10" s:pid="A"/>
  </g>
  <g s:type="constant" transform="translate(734,285)" s:width="30" s:height="20" id="cell_1001001000000111000000100000001000100000101010010000100111001000010000000000000000000000">
    <text x="15" y="-4" class="nodelabel cell_1001001000000111000000100000001000100000101010010000100111001000010000000000000000000000" s:attribute="ref">0x9207020220a90800000000</text>
    <s:alias val="$_constant_"/>
    <rect width="30" height="20" class="cell_1001001000000111000000100000001000100000101010010000100111001000010000000000000000000000"/>
    <g s:x="30" s:y="10" s:pid="Y"/>
  </g>
  <g s:type="constant" transform="translate(560,57.5)" s:width="30" s:height="20" id="cell_00">
    <text x="15" y="-4" class="nodelabel cell_00" s:attribute="ref">00</text>
    <s:alias val="$_constant_"/>
    <rect width="30" height="20" class="cell_00"/>
    <g s:x="30" s:y="10" s:pid="Y"/>
  </g>
  <g s:type="join" transform="translate(512,390)" s:width="4" s:height="40" id="cell_$join$,20,21,22,23,24,25,26,">
    <rect width="5" height="40" class="splitjoinBody" s:generic="body"/>
    <s:alias val="$_join_"/>
    <g s:x="5" s:y="20" s:pid="out"/>
    <g transform="translate(0,10)" s:x="0" s:y="10" s:pid="in0">
      <text x="-3" y="-4" class="inputPortLabel">0:5</text>
    </g>
  </g>
  <g s:type="join" transform="translate(251,271.5)" s:width="4" s:height="40" id="cell_$join$,20,21,22,23,24,25,">
    <rect width="5" height="120" class="splitjoinBody" s:generic="body"/>
    <s:alias val="$_join_"/>
    <g s:x="5" s:y="20" s:pid="out"/>
    <g transform="translate(0,10)" s:x="0" s:y="10" s:pid="in0">
      <text x="-3" y="-4" class="inputPortLabel">0</text>
    </g>
    <g transform="translate(0,30)" s:x="0" s:y="10" s:pid="in0">
      <text x="-3" y="-4" class="inputPortLabel">1</text>
    </g>
    <g transform="translate(0,50)" s:x="0" s:y="10" s:pid="in0">
      <text x="-3" y="-4" class="inputPortLabel">2</text>
    </g>
    <g transform="translate(0,70)" s:x="0" s:y="10" s:pid="in0">
      <text x="-3" y="-4" class="inputPortLabel">3</text>
    </g>
    <g transform="translate(0,90)" s:x="0" s:y="10" s:pid="in0">
      <text x="-3" y="-4" class="inputPortLabel">4</text>
    </g>
    <g transform="translate(0,110)" s:x="0" s:y="10" s:pid="in0">
      <text x="-3" y="-4" class="inputPortLabel">5</text>
    </g>
  </g>
  <g s:type="join" transform="translate(512,315)" s:width="4" s:height="40" id="cell_$join$,20,21,22,23,28,29,30,">
    <rect width="5" height="40" class="splitjoinBody" s:generic="body"/>
    <s:alias val="$_join_"/>
    <g s:x="5" s:y="20" s:pid="out"/>
    <g transform="translate(0,10)" s:x="0" s:y="10" s:pid="in0">
      <text x="-3" y="-4" class="inputPortLabel">0:4</text>
    </g>
  </g>
  <g s:type="join" transform="translate(425,305)" s:width="4" s:height="40" id="cell_$join$,20,21,22,23,28,">
    <rect width="5" height="40" class="splitjoinBody" s:generic="body"/>
    <s:alias val="$_join_"/>
    <g s:x="5" s:y="20" s:pid="out"/>
    <g transform="translate(0,10)" s:x="0" s:y="10" s:pid="in0">
      <text x="-3" y="-4" class="inputPortLabel">0:3</text>
    </g>
    <g transform="translate(0,30)" s:x="0" s:y="10" s:pid="in0">
      <text x="-3" y="-4" class="inputPortLabel">4</text>
    </g>
  </g>
  <g s:type="join" transform="translate(498,112.5)" s:width="4" s:height="40" id="cell_$join$,20,21,32,33,24,25,26,">
    <rect width="5" height="100" class="splitjoinBody" s:generic="body"/>
    <s:alias val="$_join_"/>
    <g s:x="5" s:y="20" s:pid="out"/>
    <g transform="translate(0,10)" s:x="0" s:y="10" s:pid="in0">
      <text x="-3" y="-4" class="inputPortLabel">0:1</text>
    </g>
    <g transform="translate(0,30)" s:x="0" s:y="10" s:pid="in0">
      <text x="-3" y="-4" class="inputPortLabel">2</text>
    </g>
    <g transform="translate(0,50)" s:x="0" s:y="10" s:pid="in0">
      <text x="-3" y="-4" class="inputPortLabel">3</text>
    </g>
    <g transform="translate(0,70)" s:x="0" s:y="10" s:pid="in0">
      <text x="-3" y="-4" class="inputPortLabel">4:5</text>
    </g>
    <g transform="translate(0,90)" s:x="0" s:y="10" s:pid="in0">
      <text x="-3" y="-4" class="inputPortLabel">6</text>
    </g>
  </g>
  <g s:type="join" transform="translate(512,653.5)" s:width="4" s:height="40" id="cell_$join$,20,21,22,23,24,29,30,">
    <rect width="5" height="60" class="splitjoinBody" s:generic="body"/>
    <s:alias val="$_join_"/>
    <g s:x="5" s:y="20" s:pid="out"/>
    <g transform="translate(0,10)" s:x="0" s:y="10" s:pid="in0">
      <text x="-3" y="-4" class="inputPortLabel">0:4</text>
    </g>
    <g transform="translate(0,30)" s:x="0" s:y="10" s:pid="in0">
      <text x="-3" y="-4" class="inputPortLabel">5</text>
    </g>
    <g transform="translate(0,50)" s:x="0" s:y="10" s:pid="in0">
      <text x="-3" y="-4" class="inputPortLabel">6</text>
    </g>
  </g>
  <g s:type="join" transform="translate(512,501.5)" s:width="4" s:height="40" id="cell_$join$,20,21,22,23,28,25,30,">
    <rect width="5" height="40" class="splitjoinBody" s:generic="body"/>
    <s:alias val="$_join_"/>
    <g s:x="5" s:y="20" s:pid="out"/>
    <g transform="translate(0,10)" s:x="0" s:y="10" s:pid="in0">
      <text x="-3" y="-4" class="inputPortLabel">0:4</text>
    </g>
    <g transform="translate(0,30)" s:x="0" s:y="10" s:pid="in0">
      <text x="-3" y="-4" class="inputPortLabel">5:6</text>
    </g>
  </g>
  <g s:type="join" transform="translate(425,511.5)" s:width="4" s:height="40" id="cell_$join$,25,30,">
    <rect width="5" height="40" class="splitjoinBody" s:generic="body"/>
    <s:alias val="$_join_"/>
    <g s:x="5" s:y="20" s:pid="out"/>
    <g transform="translate(0,10)" s:x="0" s:y="10" s:pid="in0">
      <text x="-3" y="-4" class="inputPortLabel">0</text>
    </g>
    <g transform="translate(0,30)" s:x="0" s:y="10" s:pid="in0">
      <text x="-3" y="-4" class="inputPortLabel">1</text>
    </g>
  </g>
  <g s:type="join" transform="translate(512,578.5)" s:width="4" s:height="40" id="cell_$join$,20,21,22,23,24,25,30,">
    <rect width="5" height="40" class="splitjoinBody" s:generic="body"/>
    <s:alias val="$_join_"/>
    <g s:x="5" s:y="20" s:pid="out"/>
    <g transform="translate(0,10)" s:x="0" s:y="10" s:pid="in0">
      <text x="-3" y="-4" class="inputPortLabel">0:5</text>
    </g>
    <g transform="translate(0,30)" s:x="0" s:y="10" s:pid="in0">
      <text x="-3" y="-4" class="inputPortLabel">6</text>
    </g>
  </g>
  <g s:type="join" transform="translate(679,340)" s:width="4" s:height="40" id="cell_$join$,130,131,34,31,27,36,37,35,">
    <rect width="5" height="140" class="splitjoinBody" s:generic="body"/>
    <s:alias val="$_join_"/>
    <g s:x="5" s:y="20" s:pid="out"/>
    <g transform="translate(0,10)" s:x="0" s:y="10" s:pid="in0">
      <text x="-3" y="-4" class="inputPortLabel">0:1</text>
    </g>
    <g transform="translate(0,30)" s:x="0" s:y="10" s:pid="in0">
      <text x="-3" y="-4" class="inputPortLabel">2</text>
    </g>
    <g transform="translate(0,50)" s:x="0" s:y="10" s:pid="in0">
      <text x="-3" y="-4" class="inputPortLabel">3</text>
    </g>
    <g transform="translate(0,70)" s:x="0" s:y="10" s:pid="in0">
      <text x="-3" y="-4" class="inputPortLabel">4</text>
    </g>
    <g transform="translate(0,90)" s:x="0" s:y="10" s:pid="in0">
      <text x="-3" y="-4" class="inputPortLabel">5</text>
    </g>
    <g transform="translate(0,110)" s:x="0" s:y="10" s:pid="in0">
      <text x="-3" y="-4" class="inputPortLabel">6</text>
    </g>
    <g transform="translate(0,130)" s:x="0" s:y="10" s:pid="in0">
      <text x="-3" y="-4" class="inputPortLabel">7</text>
    </g>
  </g>
  <g s:type="split" transform="translate(323.6,305)" s:width="5" s:height="40" id="cell_$split$,20,21,22,23,24,25,">
    <rect width="5" height="80" class="splitjoinBody" s:generic="body"/>
    <s:alias val="$_split_"/>
    <g s:x="0" s:y="20" s:pid="in"/>
    <g transform="translate(4,10)" s:x="4" s:y="10" s:pid="out0">
      <text x="5" y="-4">0:3</text>
    </g>
    <g transform="translate(4,30)" s:x="4" s:y="10" s:pid="out0">
      <text x="5" y="-4">0:1</text>
    </g>
    <g transform="translate(4,50)" s:x="4" s:y="10" s:pid="out0">
      <text x="5" y="-4">4:5</text>
    </g>
    <g transform="translate(4,70)" s:x="4" s:y="10" s:pid="out0">
      <text x="5" y="-4">0:4</text>
    </g>
  </g>
  <g s:type="split" transform="translate(77,44.5)" s:width="5" s:height="40" id="cell_$split$,2,3,4,5,6,7,8,">
    <rect width="5" height="140" class="splitjoinBody" s:generic="body"/>
    <s:alias val="$_split_"/>
    <g s:x="0" s:y="20" s:pid="in"/>
    <g transform="translate(4,10)" s:x="4" s:y="10" s:pid="out0">
      <text x="5" y="-4">0</text>
    </g>
    <g transform="translate(4,30)" s:x="4" s:y="10" s:pid="out0">
      <text x="5" y="-4">1</text>
    </g>
    <g transform="translate(4,50)" s:x="4" s:y="10" s:pid="out0">
      <text x="5" y="-4">2</text>
    </g>
    <g transform="translate(4,70)" s:x="4" s:y="10" s:pid="out0">
      <text x="5" y="-4">3</text>
    </g>
    <g transform="translate(4,90)" s:x="4" s:y="10" s:pid="out0">
      <text x="5" y="-4">4</text>
    </g>
    <g transform="translate(4,110)" s:x="4" s:y="10" s:pid="out0">
      <text x="5" y="-4">5</text>
    </g>
    <g transform="translate(4,130)" s:x="4" s:y="10" s:pid="out0">
      <text x="5" y="-4">6</text>
    </g>
  </g>
  <g s:type="split" transform="translate(1083,274.5)" s:width="5" s:height="40" id="cell_$split$,10,18,19,9,11,12,13,14,15,16,17,">
    <rect width="5" height="160" class="splitjoinBody" s:generic="body"/>
    <s:alias val="$_split_"/>
    <g s:x="0" s:y="20" s:pid="in"/>
    <g transform="translate(4,10)" s:x="4" s:y="10" s:pid="out0">
      <text x="5" y="-4">3</text>
    </g>
    <g transform="translate(4,30)" s:x="4" s:y="10" s:pid="out0">
      <text x="5" y="-4">0</text>
    </g>
    <g transform="translate(4,50)" s:x="4" s:y="10" s:pid="out0">
      <text x="5" y="-4">4:5</text>
    </g>
    <g transform="translate(4,70)" s:x="4" s:y="10" s:pid="out0">
      <text x="5" y="-4">6</text>
    </g>
    <g transform="translate(4,90)" s:x="4" s:y="10" s:pid="out0">
      <text x="5" y="-4">7</text>
    </g>
    <g transform="translate(4,110)" s:x="4" s:y="10" s:pid="out0">
      <text x="5" y="-4">8:9</text>
    </g>
    <g transform="translate(4,130)" s:x="4" s:y="10" s:pid="out0">
      <text x="5" y="-4">10</text>
    </g>
    <g transform="translate(4,150)" s:x="4" s:y="10" s:pid="out0">
      <text x="5" y="-4">1:2</text>
    </g>
  </g>
  <line x1="518" x2="583.5" y1="410.5" y2="410.5" class="net_20,21,22,23,24,25,26"/>
  <line x1="518" x2="560" y1="335.5" y2="335.5" class="net_20,21,22,23,28,29,30"/>
  <line x1="504" x2="583.5" y1="133" y2="133" class="net_20,21,32,33,24,25,26"/>
  <line x1="518" x2="583.5" y1="674" y2="674" class="net_20,21,22,23,24,29,30"/>
  <line x1="518" x2="583.5" y1="522" y2="522" class="net_20,21,22,23,28,25,30"/>
  <line x1="518" x2="583.5" y1="599" y2="599" class="net_20,21,22,23,24,25,30"/>
  <line x1="81.5" x2="81.5" y1="54.5" y2="32.5" class="net_2"/>
  <line x1="81.5" x2="166" y1="32.5" y2="32.5" class="net_2"/>
  <line x1="82" x2="149" y1="75" y2="75" class="net_3"/>
  <line x1="149" x2="149" y1="75" y2="254" class="net_3"/>
  <line x1="149" x2="166" y1="254" y2="254" class="net_3"/>
  <line x1="82" x2="408" y1="95" y2="95" class="net_4"/>
  <line x1="82" x2="139" y1="95" y2="95" class="net_4"/>
  <line x1="139" x2="139" y1="95" y2="322" class="net_4"/>
  <circle cx="139" cy="95" r="2" style="fill:#000" class="net_4"/>
  <line x1="139" x2="166" y1="322" y2="322" class="net_4"/>
  <line x1="82" x2="129" y1="115" y2="115" class="net_5"/>
  <line x1="129" x2="129" y1="115" y2="163" class="net_5"/>
  <circle cx="129" cy="163" r="2" style="fill:#000" class="net_5"/>
  <line x1="129" x2="408" y1="163" y2="163" class="net_5"/>
  <line x1="82" x2="129" y1="115" y2="115" class="net_5"/>
  <line x1="129" x2="129" y1="115" y2="390" class="net_5"/>
  <line x1="129" x2="166" y1="390" y2="390" class="net_5"/>
  <line x1="82" x2="119" y1="135" y2="135" class="net_6"/>
  <line x1="119" x2="119" y1="135" y2="480.5" class="net_6"/>
  <line x1="119" x2="301" y1="480.5" y2="480.5" class="net_6"/>
  <line x1="82" x2="119" y1="135" y2="135" class="net_6"/>
  <line x1="119" x2="119" y1="135" y2="458" class="net_6"/>
  <circle cx="119" cy="458" r="2" style="fill:#000" class="net_6"/>
  <line x1="119" x2="166" y1="458" y2="458" class="net_6"/>
  <line x1="82" x2="99" y1="155" y2="155" class="net_7"/>
  <line x1="99" x2="99" y1="155" y2="512" class="net_7"/>
  <circle cx="99" cy="512" r="2" style="fill:#000" class="net_7"/>
  <line x1="99" x2="166" y1="512" y2="512" class="net_7"/>
  <line x1="82" x2="99" y1="155" y2="155" class="net_7"/>
  <line x1="99" x2="99" y1="155" y2="684" class="net_7"/>
  <line x1="99" x2="408" y1="684" y2="684" class="net_7"/>
  <line x1="81.5" x2="81.5" y1="175.5" y2="222.5" class="net_8"/>
  <line x1="81.5" x2="408" y1="222.5" y2="222.5" class="net_8"/>
  <line x1="81.5" x2="81.5" y1="175.5" y2="222.5" class="net_8"/>
  <line x1="81.5" x2="109" y1="222.5" y2="222.5" class="net_8"/>
  <line x1="109" x2="109" y1="222.5" y2="620.5" class="net_8"/>
  <circle cx="109" cy="222.5" r="2" style="fill:#000" class="net_8"/>
  <line x1="109" x2="301" y1="620.5" y2="620.5" class="net_8"/>
  <line x1="764" x2="968" y1="295" y2="295" class="net_42,43,44,45,46,47,48,49,50,51,52,53,54,55,56,57,58,59,60,61,62,63,64,65,66,67,68,69,70,71,72,73,74,75,76,77,78,79,80,81,82,83,84,85,86,87,88,89,90,91,92,93,94,95,96,97,98,99,100,101,102,103,104,105,106,107,108,109,110,111,112,113,114,115,116,117,118,119,120,121,122,123,124,125,126,127,128,129"/>
  <line x1="807" x2="888" y1="360.5" y2="360.5" class="net_38,39,40"/>
  <line x1="888" x2="888" y1="360.5" y2="315" class="net_38,39,40"/>
  <line x1="888" x2="968" y1="315" y2="315" class="net_38,39,40"/>
  <line x1="685" x2="776" y1="360.5" y2="360.5" class="net_130,131,34,31,27,36,37,35"/>
  <line x1="1087.5" x2="1087.5" y1="284.5" y2="240" class="net_9"/>
  <line x1="1087.5" x2="1155" y1="240" y2="240" class="net_9"/>
  <line x1="1088" x2="1155" y1="305" y2="305" class="net_10"/>
  <line x1="1088" x2="1145" y1="325" y2="325" class="net_11,12"/>
  <line x1="1145" x2="1145" y1="325" y2="370" class="net_11,12"/>
  <line x1="1145" x2="1155" y1="370" y2="370" class="net_11,12"/>
  <line x1="1088" x2="1135" y1="345" y2="345" class="net_13"/>
  <line x1="1135" x2="1135" y1="345" y2="435" class="net_13"/>
  <line x1="1135" x2="1155" y1="435" y2="435" class="net_13"/>
  <line x1="1088" x2="1125" y1="365" y2="365" class="net_14"/>
  <line x1="1125" x2="1125" y1="365" y2="500" class="net_14"/>
  <line x1="1125" x2="1155" y1="500" y2="500" class="net_14"/>
  <line x1="1088" x2="1115" y1="385" y2="385" class="net_15,16"/>
  <line x1="1115" x2="1115" y1="385" y2="565" class="net_15,16"/>
  <line x1="1115" x2="1155" y1="565" y2="565" class="net_15,16"/>
  <line x1="1088" x2="1105" y1="405" y2="405" class="net_17"/>
  <line x1="1105" x2="1105" y1="405" y2="630" class="net_17"/>
  <line x1="1105" x2="1155" y1="630" y2="630" class="net_17"/>
  <line x1="1087.5" x2="1087.5" y1="425.5" y2="695" class="net_18,19"/>
  <line x1="1087.5" x2="1155" y1="695" y2="695" class="net_18,19"/>
  <line x1="257" x2="478" y1="292" y2="292" class="net_20,21,22,23,24,25"/>
  <line x1="478" x2="478" y1="292" y2="400.5" class="net_20,21,22,23,24,25"/>
  <line x1="478" x2="512" y1="400.5" y2="400.5" class="net_20,21,22,23,24,25"/>
  <line x1="257" x2="269" y1="292" y2="292" class="net_20,21,22,23,24,25"/>
  <line x1="269" x2="269" y1="292" y2="589" class="net_20,21,22,23,24,25"/>
  <circle cx="269" cy="292" r="2" style="fill:#000" class="net_20,21,22,23,24,25"/>
  <line x1="269" x2="512" y1="589" y2="589" class="net_20,21,22,23,24,25"/>
  <line x1="257" x2="269" y1="292" y2="292" class="net_20,21,22,23,24,25"/>
  <line x1="269" x2="269" y1="292" y2="325.5" class="net_20,21,22,23,24,25"/>
  <circle cx="269" cy="325.5" r="2" style="fill:#000" class="net_20,21,22,23,24,25"/>
  <line x1="269" x2="323.6" y1="325.5" y2="325.5" class="net_20,21,22,23,24,25"/>
  <line x1="197" x2="251.5" y1="32.5" y2="32.5" class="net_20"/>
  <line x1="251.5" x2="251.5" y1="32.5" y2="281.5" class="net_20"/>
  <line x1="197" x2="226" y1="254" y2="254" class="net_21"/>
  <line x1="226" x2="226" y1="254" y2="302" class="net_21"/>
  <line x1="226" x2="251" y1="302" y2="302" class="net_21"/>
  <line x1="197" x2="251" y1="322" y2="322" class="net_22"/>
  <line x1="197" x2="226" y1="390" y2="390" class="net_23"/>
  <line x1="226" x2="226" y1="390" y2="342" class="net_23"/>
  <line x1="226" x2="251" y1="342" y2="342" class="net_23"/>
  <line x1="197" x2="236" y1="458" y2="458" class="net_24"/>
  <line x1="236" x2="236" y1="458" y2="362" class="net_24"/>
  <line x1="236" x2="251" y1="362" y2="362" class="net_24"/>
  <line x1="197" x2="251.5" y1="512" y2="512" class="net_25"/>
  <line x1="251.5" x2="251.5" y1="512" y2="382.5" class="net_25"/>
  <line x1="197" x2="226" y1="512" y2="512" class="net_25"/>
  <line x1="226" x2="226" y1="512" y2="522" class="net_25"/>
  <circle cx="226" cy="512" r="2" style="fill:#000" class="net_25"/>
  <line x1="226" x2="425" y1="522" y2="522" class="net_25"/>
  <line x1="431" x2="512" y1="325.5" y2="325.5" class="net_20,21,22,23,28"/>
  <line x1="431" x2="468" y1="325.5" y2="325.5" class="net_20,21,22,23,28"/>
  <line x1="468" x2="468" y1="325.5" y2="512" class="net_20,21,22,23,28"/>
  <circle cx="468" cy="325.5" r="2" style="fill:#000" class="net_20,21,22,23,28"/>
  <line x1="468" x2="512" y1="512" y2="512" class="net_20,21,22,23,28"/>
  <line x1="328.6" x2="425" y1="315.5" y2="315.5" class="net_20,21,22,23"/>
  <line x1="332" x2="381" y1="480.5" y2="480.5" class="net_28"/>
  <line x1="381" x2="381" y1="480.5" y2="335.5" class="net_28"/>
  <line x1="381" x2="425" y1="335.5" y2="335.5" class="net_28"/>
  <line x1="328.6" x2="361" y1="335.5" y2="335.5" class="net_20,21"/>
  <line x1="361" x2="361" y1="335.5" y2="63.5" class="net_20,21"/>
  <line x1="361" x2="498.5" y1="63.5" y2="63.5" class="net_20,21"/>
  <line x1="498.5" x2="498.5" y1="63.5" y2="122.5" class="net_20,21"/>
  <line x1="439" x2="468" y1="95" y2="95" class="net_32"/>
  <line x1="468" x2="468" y1="95" y2="143" class="net_32"/>
  <line x1="468" x2="498" y1="143" y2="143" class="net_32"/>
  <line x1="439" x2="498" y1="163" y2="163" class="net_33"/>
  <line x1="328.6" x2="371" y1="355.5" y2="355.5" class="net_24,25"/>
  <line x1="371" x2="371" y1="355.5" y2="185.5" class="net_24,25"/>
  <line x1="371" x2="468" y1="185.5" y2="185.5" class="net_24,25"/>
  <line x1="468" x2="468" y1="185.5" y2="183" class="net_24,25"/>
  <line x1="468" x2="498" y1="183" y2="183" class="net_24,25"/>
  <line x1="439" x2="498.5" y1="222.5" y2="222.5" class="net_26"/>
  <line x1="498.5" x2="498.5" y1="222.5" y2="203.5" class="net_26"/>
  <line x1="328.6" x2="391" y1="375.5" y2="375.5" class="net_20,21,22,23,24"/>
  <line x1="391" x2="391" y1="375.5" y2="631.5" class="net_20,21,22,23,24"/>
  <line x1="391" x2="468" y1="631.5" y2="631.5" class="net_20,21,22,23,24"/>
  <line x1="468" x2="468" y1="631.5" y2="664" class="net_20,21,22,23,24"/>
  <line x1="468" x2="512" y1="664" y2="664" class="net_20,21,22,23,24"/>
  <line x1="439" x2="512" y1="684" y2="684" class="net_29"/>
  <line x1="332" x2="361" y1="620.5" y2="620.5" class="net_30"/>
  <line x1="361" x2="361" y1="620.5" y2="706.5" class="net_30"/>
  <line x1="361" x2="468" y1="706.5" y2="706.5" class="net_30"/>
  <line x1="468" x2="468" y1="706.5" y2="704" class="net_30"/>
  <circle cx="361" cy="620.5" r="2" style="fill:#000" class="net_30"/>
  <line x1="468" x2="512" y1="704" y2="704" class="net_30"/>
  <line x1="332" x2="361" y1="620.5" y2="620.5" class="net_30"/>
  <line x1="361" x2="361" y1="620.5" y2="542" class="net_30"/>
  <line x1="361" x2="425" y1="542" y2="542" class="net_30"/>
  <line x1="332" x2="468" y1="620.5" y2="620.5" class="net_30"/>
  <line x1="468" x2="468" y1="620.5" y2="609" class="net_30"/>
  <line x1="468" x2="512" y1="609" y2="609" class="net_30"/>
  <line x1="431" x2="512" y1="532" y2="532" class="net_25,30"/>
  <line x1="590" x2="679.5" y1="67.5" y2="67.5" class="net_130,131"/>
  <line x1="679.5" x2="679.5" y1="67.5" y2="350" class="net_130,131"/>
  <line x1="614.5" x2="664" y1="133" y2="133" class="net_34"/>
  <line x1="664" x2="664" y1="133" y2="370.5" class="net_34"/>
  <line x1="664" x2="679" y1="370.5" y2="370.5" class="net_34"/>
  <line x1="591" x2="654" y1="335.5" y2="335.5" class="net_31"/>
  <line x1="654" x2="654" y1="335.5" y2="390.5" class="net_31"/>
  <line x1="654" x2="679" y1="390.5" y2="390.5" class="net_31"/>
  <line x1="614.5" x2="679" y1="410.5" y2="410.5" class="net_27"/>
  <line x1="614.5" x2="654" y1="522" y2="522" class="net_36"/>
  <line x1="654" x2="654" y1="522" y2="430.5" class="net_36"/>
  <line x1="654" x2="679" y1="430.5" y2="430.5" class="net_36"/>
  <line x1="614.5" x2="664" y1="599" y2="599" class="net_37"/>
  <line x1="664" x2="664" y1="599" y2="450.5" class="net_37"/>
  <line x1="664" x2="679" y1="450.5" y2="450.5" class="net_37"/>
  <line x1="614.5" x2="679.5" y1="674" y2="674" class="net_35"/>
  <line x1="679.5" x2="679.5" y1="674" y2="471" class="net_35"/>
  <line x1="40" x2="77" y1="65" y2="65" class="net_2,3,4,5,6,7,8"/>
  <line x1="999" x2="1083" y1="295" y2="295" class="net_10,18,19,9,11,12,13,14,15,16,17"/>
</svg>
