<svg xmlns="http://www.w3.org/2000/svg" xmlns:xlink="http://www.w3.org/1999/xlink" xmlns:s="https://github.com/nturley/netlistsvg" width="387" height="126.5">
  <style>svg {
    stroke:#000;
    fill:none;
  }
  text {
    fill:#000;
    stroke:none;
    font-size:10px;
    font-weight: bold;
    font-family: "Courier New", monospace;
  }
  .nodelabel {
    text-anchor: middle;
  }
  .inputPortLabel {
    text-anchor: end;
  }
  .splitjoinBody {
    fill:#000;
  }</style>
  <g s:type="not" transform="translate(77,72)" s:width="30" s:height="20" id="cell_$auto$simplemap.cc:38:simplemap_not$86">
    <s:alias val="$_NOT_"/>
    <s:alias val="$not"/>
    <s:alias val="$logic_not"/>
    <path d="M0,0 L0,20 L20,10 Z" class="cell_$auto$simplemap.cc:38:simplemap_not$86"/>
    <circle cx="23" cy="10" r="3" class="cell_$auto$simplemap.cc:38:simplemap_not$86"/>
    <g s:x="0" s:y="10" s:pid="A"/>
    <g s:x="25" s:y="10" s:pid="Y"/>
  </g>
    <g s:type="not" transform="translate(77,97)" s:width="30" s:height="20" id="cell_$auto$simplemap.cc:38:simplemap_not$86">
    <s:alias val="$_NOT_"/>
    <s:alias val="$not"/>
    <s:alias val="$logic_not"/>
    <path d="M0,0 L0,20 L20,10 Z" class="cell_$auto$simplemap.cc:38:simplemap_not$86"/>
    <g s:x="0" s:y="10" s:pid="A"/>
    <g s:x="25" s:y="10" s:pid="Y"/>
  </g>
  <g s:type="and" transform="translate(142,87)" s:width="30" s:height="25" id="cell_$auto$simplemap.cc:75:simplemap_bitop$84">
    <s:alias val="$and"/>
    <s:alias val="$logic_and"/>
    <s:alias val="$_AND_"/>
    <path d="M0,0 L0,25 L15,25 A15 12.5 0 0 0 15,0 Z" class="cell_$auto$simplemap.cc:75:simplemap_bitop$84"/>
    <g s:x="0" s:y="5" s:pid="A"/>
    <g s:x="0" s:y="20" s:pid="B"/>
    <g s:x="30" s:y="12.5" s:pid="Y"/>
  </g>
  <g s:type="and" transform="translate(142,27)" s:width="30" s:height="25" id="cell_$auto$simplemap.cc:75:simplemap_bitop$85">
    <s:alias val="$and"/>
    <s:alias val="$logic_and"/>
    <s:alias val="$_AND_"/>
    <path d="M0,0 L0,25 L15,25 A15 12.5 0 0 0 15,0 Z" class="cell_$auto$simplemap.cc:75:simplemap_bitop$85"/>
    <g s:x="0" s:y="5" s:pid="A"/>
    <g s:x="0" s:y="20" s:pid="B"/>
    <g s:x="30" s:y="12.5" s:pid="Y"/>
  </g>
  <g s:type="generic" transform="translate(214,29)" s:width="30" s:height="40" id="cell_genblk1.sr_latch">
    <text x="15" y="-4" class="nodelabel cell_genblk1.sr_latch" s:attribute="ref">sr_latch</text>
    <rect width="30" height="40" s:generic="body" class="cell_genblk1.sr_latch"/>
    <g transform="translate(0,10)" s:x="0" s:y="10" s:pid="in0" id="port_genblk1.sr_latch~r">
      <text x="-3" y="-4" class="inputPortLabel cell_genblk1.sr_latch">r</text>
    </g>
    <g transform="translate(0,30)" s:x="0" s:y="10" s:pid="in0" id="port_genblk1.sr_latch~s">
      <text x="-3" y="-4" class="inputPortLabel cell_genblk1.sr_latch">s</text>
    </g>
    <g transform="translate(30,10)" s:x="30" s:y="10" s:pid="out0" id="port_genblk1.sr_latch~q">
      <text x="5" y="-4" style="fill:#000; stroke:none" class="cell_genblk1.sr_latch">q</text>
    </g>
    <g transform="translate(30,30)" s:x="30" s:y="10" s:pid="out0" id="port_genblk1.sr_latch~qbar">
      <text x="5" y="-4" style="fill:#000; stroke:none" class="cell_genblk1.sr_latch">qbar</text>
    </g>
  </g>
  <g s:type="inputExt" transform="translate(77,22)" s:width="30" s:height="20" id="cell_clk">
    <text x="15" y="-4" class="nodelabel cell_clk" s:attribute="ref">clk</text>
    <s:alias val="$_inputExt_"/>
    <path d="M0,0 L0,20 L15,20 L30,10 L15,0 Z" class="cell_clk"/>
    <g s:x="28" s:y="10" s:pid="Y"/>
  </g>
  <g s:type="inputExt" transform="translate(12,72)" s:width="30" s:height="20" id="cell_d">
    <text x="15" y="-4" class="nodelabel cell_d" s:attribute="ref">d</text>
    <s:alias val="$_inputExt_"/>
    <path d="M0,0 L0,20 L15,20 L30,10 L15,0 Z" class="cell_d"/>
    <g s:x="28" s:y="10" s:pid="Y"/>
  </g>
  <g s:type="outputExt" transform="translate(345,29.5)" s:width="30" s:height="20" id="cell_q">
    <text x="15" y="-4" class="nodelabel cell_q" s:attribute="ref">q</text>
    <s:alias val="$_outputExt_"/>
    <path d="M30,0 L30,20 L15,20 L0,10 L15,0 Z" class="cell_q"/>
    <g s:x="0" s:y="10" s:pid="A"/>
  </g>
  <g s:type="outputExt" transform="translate(345,94.5)" s:width="30" s:height="20" id="cell_qbar">
    <text x="15" y="-4" class="nodelabel cell_qbar" s:attribute="ref">qbar</text>
    <s:alias val="$_outputExt_"/>
    <path d="M30,0 L30,20 L15,20 L0,10 L15,0 Z" class="cell_qbar"/>
    <g s:x="0" s:y="10" s:pid="A"/>
  </g>
  <line x1="52" x2="77" y1="83" y2="83" class="net_3"/>
  <line x1="40" x2="52" y1="83" y2="83" class="net_3"/>
  <line x1="52" x2="52" y1="83" y2="107" class="net_3"/>
  <circle cx="52" cy="83" r="2" style="fill:#000" class="net_3"/>
  <line x1="52" x2="77" y1="107" y2="107" class="net_3"/>
  <line x1="97" x2="142" y1="107" y2="107" class="net_3"/>
  <line x1="105" x2="127" y1="32" y2="32" class="net_2"/>
  <line x1="127" x2="127" y1="32" y2="92" class="net_2"/>
  <circle cx="127" cy="32" r="2" style="fill:#000" class="net_2"/>
  <line x1="127" x2="142" y1="92" y2="92" class="net_2"/>
  <line x1="105" x2="142" y1="32" y2="32" class="net_2"/>
  <line x1="102" x2="117" y1="82" y2="82" class="net_6"/>
  <line x1="117" x2="117" y1="82" y2="47" class="net_6"/>
  <line x1="117" x2="142" y1="47" y2="47" class="net_6"/>
  <line x1="172" x2="214" y1="39.5" y2="39.5" class="net_8"/>
  <line x1="172" x2="182" y1="99.5" y2="99.5" class="net_7"/>
  <line x1="182" x2="182" y1="99.5" y2="59.5" class="net_7"/>
  <line x1="182" x2="214" y1="59.5" y2="59.5" class="net_7"/>
  <line x1="245" x2="345" y1="39.5" y2="39.5" class="net_4"/>
  <line x1="245" x2="320" y1="59.5" y2="59.5" class="net_5"/>
  <line x1="320" x2="320" y1="59.5" y2="104.5" class="net_5"/>
  <line x1="320" x2="345" y1="104.5" y2="104.5" class="net_5"/>
</svg>
