<svg xmlns="http://www.w3.org/2000/svg" xmlns:xlink="http://www.w3.org/1999/xlink" xmlns:s="https://github.com/nturley/netlistsvg" width="356" height="136.5">
  <style>svg {
    stroke:#000;
    fill:none;
  }
  text {
    fill:#000;
    stroke:none;
    font-size:10px;
    font-weight: bold;
    font-family: "Courier New", monospace;
  }
  .nodelabel {
    text-anchor: middle;
  }
  .inputPortLabel {
    text-anchor: end;
  }
  .splitjoinBody {
    fill:#000;
  }</style>
  <g s:type="not" transform="translate(101,89.5)" s:width="30" s:height="20" id="cell_$auto$simplemap.cc:38:simplemap_not$86">
    <s:alias val="$_NOT_"/>
    <s:alias val="$not"/>
    <s:alias val="$logic_not"/>
    <path d="M0,0 L0,20 L20,10 Z" class="cell_$auto$simplemap.cc:38:simplemap_not$86"/>
    <circle cx="23" cy="10" r="3" class="cell_$auto$simplemap.cc:38:simplemap_not$86"/>
    <g s:x="0" s:y="10" s:pid="A"/>
    <g s:x="25" s:y="10" s:pid="Y"/>
  </g>
  <g s:type="and" transform="translate(166,19.5)" s:width="30" s:height="25" id="cell_$auto$simplemap.cc:75:simplemap_bitop$83">
    <s:alias val="$and"/>
    <s:alias val="$logic_and"/>
    <s:alias val="$_AND_"/>
    <path d="M0,0 L0,25 L15,25 A15 12.5 0 0 0 15,0 Z" class="cell_$auto$simplemap.cc:75:simplemap_bitop$83"/>
    <g s:x="0" s:y="5" s:pid="A"/>
    <g s:x="0" s:y="20" s:pid="B"/>
    <g s:x="30" s:y="12.5" s:pid="Y"/>
  </g>
  <g s:type="and" transform="translate(166,99.5)" s:width="30" s:height="25" id="cell_$auto$simplemap.cc:75:simplemap_bitop$84">
    <s:alias val="$and"/>
    <s:alias val="$logic_and"/>
    <s:alias val="$_AND_"/>
    <path d="M0,0 L0,25 L15,25 A15 12.5 0 0 0 15,0 Z" class="cell_$auto$simplemap.cc:75:simplemap_bitop$84"/>
    <g s:x="0" s:y="5" s:pid="A"/>
    <g s:x="0" s:y="20" s:pid="B"/>
    <g s:x="30" s:y="12.5" s:pid="Y"/>
  </g>
  <g s:type="or" transform="translate(231,27)" s:width="30" s:height="25" id="cell_$auto$simplemap.cc:75:simplemap_bitop$85">
    <s:alias val="$or"/>
    <s:alias val="$logic_or"/>
    <s:alias val="$_OR_"/>
    <path d="M0,25 L0,25 L15,25 A15 12.5 0 0 0 15,0 L0,0" class="cell_$auto$simplemap.cc:75:simplemap_bitop$85"/>
    <path d="M0,0 A30 25 0 0 1 0,25" class="cell_$auto$simplemap.cc:75:simplemap_bitop$85"/>
    <g s:x="3" s:y="5" s:pid="A"/>
    <g s:x="3" s:y="20" s:pid="B"/>
    <g s:x="30" s:y="12.5" s:pid="Y"/>
  </g>
  <g s:type="inputExt" transform="translate(12,24.5)" s:width="30" s:height="20" id="cell_data_list">
    <text x="15" y="-4" class="nodelabel cell_data_list" s:attribute="ref">data_list</text>
    <s:alias val="$_inputExt_"/>
    <path d="M0,0 L0,20 L15,20 L30,10 L15,0 Z" class="cell_data_list"/>
    <g s:x="28" s:y="10" s:pid="Y"/>
  </g>
  <g s:type="inputExt" transform="translate(12,89.5)" s:width="30" s:height="20" id="cell_select">
    <text x="15" y="-4" class="nodelabel cell_select" s:attribute="ref">select</text>
    <s:alias val="$_inputExt_"/>
    <path d="M0,0 L0,20 L15,20 L30,10 L15,0 Z" class="cell_select"/>
    <g s:x="28" s:y="10" s:pid="Y"/>
  </g>
  <g s:type="outputExt" transform="translate(296,29.5)" s:width="30" s:height="20" id="cell_data_out">
    <text x="15" y="-4" class="nodelabel cell_data_out" s:attribute="ref">data_out</text>
    <s:alias val="$_outputExt_"/>
    <path d="M30,0 L30,20 L15,20 L0,10 L15,0 Z" class="cell_data_out"/>
    <g s:x="0" s:y="10" s:pid="A"/>
  </g>
  <g s:type="split" transform="translate(115.33333333333333,14)" s:width="5" s:height="40" id="cell_$split$,2,3,">
    <rect width="5" height="40" class="splitjoinBody" s:generic="body"/>
    <s:alias val="$_split_"/>
    <g s:x="0" s:y="20" s:pid="in"/>
    <g transform="translate(4,10)" s:x="4" s:y="10" s:pid="out0">
      <text x="5" y="-4">0</text>
    </g>
    <g transform="translate(4,30)" s:x="4" s:y="10" s:pid="out0">
      <text x="5" y="-4">1</text>
    </g>
  </g>
  <line x1="40" x2="101" y1="99.5" y2="99.5" class="net_4"/>
  <line x1="40" x2="76" y1="99.5" y2="99.5" class="net_4"/>
  <line x1="76" x2="76" y1="99.5" y2="119.5" class="net_4"/>
  <circle cx="76" cy="99.5" r="2" style="fill:#000" class="net_4"/>
  <line x1="76" x2="166" y1="119.5" y2="119.5" class="net_4"/>
  <line x1="120.33333333333333" x2="166" y1="24.5" y2="24.5" class="net_2"/>
  <line x1="126" x2="141" y1="99.5" y2="99.5" class="net_6"/>
  <line x1="141" x2="141" y1="99.5" y2="39.5" class="net_6"/>
  <line x1="141" x2="166" y1="39.5" y2="39.5" class="net_6"/>
  <line x1="120.33333333333333" x2="151" y1="44.5" y2="44.5" class="net_3"/>
  <line x1="151" x2="151" y1="44.5" y2="104.5" class="net_3"/>
  <line x1="151" x2="166" y1="104.5" y2="104.5" class="net_3"/>
  <line x1="196" x2="234" y1="32" y2="32" class="net_7"/>
  <line x1="196" x2="206" y1="112" y2="112" class="net_8"/>
  <line x1="206" x2="206" y1="112" y2="47" class="net_8"/>
  <line x1="206" x2="234" y1="47" y2="47" class="net_8"/>
  <line x1="261" x2="296" y1="39.5" y2="39.5" class="net_5"/>
  <line x1="40" x2="115.33333333333333" y1="34.5" y2="34.5" class="net_2,3"/>
</svg>
