<svg xmlns="http://www.w3.org/2000/svg" xmlns:xlink="http://www.w3.org/1999/xlink" xmlns:s="https://github.com/nturley/netlistsvg" width="231" height="121.5">
  <style>svg {
    stroke:#000;
    fill:none;
  }
  text {
    fill:#000;
    stroke:none;
    font-size:10px;
    font-weight: bold;
    font-family: "Courier New", monospace;
  }
  .nodelabel {
    text-anchor: middle;
  }
  .inputPortLabel {
    text-anchor: end;
  }
  .splitjoinBody {
    fill:#000;
  }</style>
  <g s:type="not" transform="translate(124,22)" s:width="30" s:height="20" id="cell_$abc$82$auto$blifparse.cc:396:parse_blif$83">
    <s:alias val="$_NOT_"/>
    <s:alias val="$not"/>
    <s:alias val="$logic_not"/>
    <path d="M0,0 L0,20 L20,10 Z" class="cell_$abc$82$auto$blifparse.cc:396:parse_blif$83"/>
    <g s:x="0" s:y="10" s:pid="A"/>
    <g s:x="25" s:y="10" s:pid="Y"/>
  </g>
  <g s:type="or" transform="translate(124,84.5)" s:width="30" s:height="25" id="cell_$abc$82$auto$blifparse.cc:396:parse_blif$84">
    <s:alias val="$or"/>
    <s:alias val="$logic_or"/>
    <s:alias val="$_OR_"/>
    <path d="M0,25 L0,25 L15,25 A15 12.5 0 0 0 15,0 L0,0" class="cell_$abc$82$auto$blifparse.cc:396:parse_blif$84"/>
    <path d="M0,0 A30 25 0 0 1 0,25" class="cell_$abc$82$auto$blifparse.cc:396:parse_blif$84"/>
    <g s:x="3" s:y="5" s:pid="A"/>
    <g s:x="3" s:y="20" s:pid="B"/>
    <g s:x="30" s:y="12.5" s:pid="Y"/>
  </g>
  <g s:type="inputExt" transform="translate(12,32)" s:width="30" s:height="20" id="cell_a">
    <text x="15" y="-4" class="nodelabel cell_a" s:attribute="ref">a</text>
    <s:alias val="$_inputExt_"/>
    <path d="M0,0 L0,20 L15,20 L30,10 L15,0 Z" class="cell_a"/>
    <g s:x="28" s:y="10" s:pid="Y"/>
  </g>
  <g s:type="outputExt" transform="translate(189,22)" s:width="30" s:height="20" id="cell_out">
    <text x="15" y="-4" class="nodelabel cell_out" s:attribute="ref">out</text>
    <s:alias val="$_outputExt_"/>
    <path d="M30,0 L30,20 L15,20 L0,10 L15,0 Z" class="cell_out"/>
    <g s:x="0" s:y="10" s:pid="A"/>
  </g>
  <g s:type="outputExt" transform="translate(189,87)" s:width="30" s:height="20" id="cell_valid">
    <text x="15" y="-4" class="nodelabel cell_valid" s:attribute="ref">valid</text>
    <s:alias val="$_outputExt_"/>
    <path d="M30,0 L30,20 L15,20 L0,10 L15,0 Z" class="cell_valid"/>
    <g s:x="0" s:y="10" s:pid="A"/>
  </g>
  <g s:type="split" transform="translate(77,21.5)" s:width="5" s:height="40" id="cell_$split$,2,3,">
    <rect width="5" height="40" class="splitjoinBody" s:generic="body"/>
    <s:alias val="$_split_"/>
    <g s:x="0" s:y="20" s:pid="in"/>
    <g transform="translate(4,10)" s:x="4" s:y="10" s:pid="out0">
      <text x="5" y="-4">1</text>
    </g>
    <g transform="translate(4,30)" s:x="4" s:y="10" s:pid="out0">
      <text x="5" y="-4">0</text>
    </g>
  </g>
  <line x1="82" x2="124" y1="32" y2="32" class="net_3"/>
  <line x1="82" x2="109" y1="32" y2="32" class="net_3"/>
  <line x1="109" x2="109" y1="32" y2="104.5" class="net_3"/>
  <circle cx="109" cy="32" r="2" style="fill:#000" class="net_3"/>
  <line x1="109" x2="127" y1="104.5" y2="104.5" class="net_3"/>
  <line x1="82" x2="99" y1="52" y2="52" class="net_2"/>
  <line x1="99" x2="99" y1="52" y2="89.5" class="net_2"/>
  <line x1="99" x2="127" y1="89.5" y2="89.5" class="net_2"/>
  <line x1="143" x2="189" y1="32" y2="32" class="net_4"/>
  <line x1="154" x2="189" y1="97" y2="97" class="net_5"/>
  <line x1="40" x2="77" y1="42" y2="42" class="net_2,3"/>
</svg>
