<svg xmlns="http://www.w3.org/2000/svg" xmlns:xlink="http://www.w3.org/1999/xlink" xmlns:s="https://github.com/nturley/netlistsvg" width="645" height="727.5">
  <style>svg {
    stroke:#000;
    fill:none;
  }
  text {
    fill:#000;
    stroke:none;
    font-size:10px;
    font-weight: bold;
    font-family: "Courier New", monospace;
  }
  .nodelabel {
    text-anchor: middle;
  }
  .inputPortLabel {
    text-anchor: end;
  }
  .splitjoinBody {
    fill:#000;
  }</style>
  <g s:type="and" transform="translate(305,27)" s:width="30" s:height="25" id="cell_$auto$simplemap.cc:75:simplemap_bitop$84">
    <s:alias val="$and"/>
    <s:alias val="$logic_and"/>
    <s:alias val="$_AND_"/>
    <path d="M0,0 L0,25 L15,25 A15 12.5 0 0 0 15,0 Z" class="cell_$auto$simplemap.cc:75:simplemap_bitop$84"/>
    <g s:x="0" s:y="5" s:pid="A"/>
    <g s:x="0" s:y="20" s:pid="B"/>
    <g s:x="30" s:y="12.5" s:pid="Y"/>
  </g>
  <g s:type="generic" transform="translate(424,29)" s:width="30" s:height="40" id="cell_flip_flop1[0]">
    <text x="15" y="-4" class="nodelabel cell_flip_flop1[0]" s:attribute="ref">d_flip_flop</text>
    <rect width="30" height="40" s:generic="body" class="cell_flip_flop1[0]"/>
    <g transform="translate(0,10)" s:x="0" s:y="10" s:pid="in0" id="port_flip_flop1[0]~clk">
      <text x="-3" y="-4" class="inputPortLabel cell_flip_flop1[0]">clk</text>
    </g>
    <g transform="translate(0,30)" s:x="0" s:y="10" s:pid="in0" id="port_flip_flop1[0]~d">
      <text x="-3" y="-4" class="inputPortLabel cell_flip_flop1[0]">d</text>
    </g>
    <g transform="translate(30,10)" s:x="30" s:y="10" s:pid="out0" id="port_flip_flop1[0]~q">
      <text x="5" y="-4" style="fill:#000; stroke:none" class="cell_flip_flop1[0]">q</text>
    </g>
  </g>
  <g s:type="generic" transform="translate(424,144.5)" s:width="30" s:height="40" id="cell_flip_flop1[1]">
    <text x="15" y="-4" class="nodelabel cell_flip_flop1[1]" s:attribute="ref">d_flip_flop</text>
    <rect width="30" height="40" s:generic="body" class="cell_flip_flop1[1]"/>
    <g transform="translate(0,10)" s:x="0" s:y="10" s:pid="in0" id="port_flip_flop1[1]~clk">
      <text x="-3" y="-4" class="inputPortLabel cell_flip_flop1[1]">clk</text>
    </g>
    <g transform="translate(0,30)" s:x="0" s:y="10" s:pid="in0" id="port_flip_flop1[1]~d">
      <text x="-3" y="-4" class="inputPortLabel cell_flip_flop1[1]">d</text>
    </g>
    <g transform="translate(30,10)" s:x="30" s:y="10" s:pid="out0" id="port_flip_flop1[1]~q">
      <text x="5" y="-4" style="fill:#000; stroke:none" class="cell_flip_flop1[1]">q</text>
    </g>
  </g>
  <g s:type="generic" transform="translate(424,232.5)" s:width="30" s:height="40" id="cell_flip_flop1[2]">
    <text x="15" y="-4" class="nodelabel cell_flip_flop1[2]" s:attribute="ref">d_flip_flop</text>
    <rect width="30" height="40" s:generic="body" class="cell_flip_flop1[2]"/>
    <g transform="translate(0,10)" s:x="0" s:y="10" s:pid="in0" id="port_flip_flop1[2]~clk">
      <text x="-3" y="-4" class="inputPortLabel cell_flip_flop1[2]">clk</text>
    </g>
    <g transform="translate(0,30)" s:x="0" s:y="10" s:pid="in0" id="port_flip_flop1[2]~d">
      <text x="-3" y="-4" class="inputPortLabel cell_flip_flop1[2]">d</text>
    </g>
    <g transform="translate(30,10)" s:x="30" s:y="10" s:pid="out0" id="port_flip_flop1[2]~q">
      <text x="5" y="-4" style="fill:#000; stroke:none" class="cell_flip_flop1[2]">q</text>
    </g>
  </g>
  <g s:type="generic" transform="translate(424,320.5)" s:width="30" s:height="40" id="cell_flip_flop1[3]">
    <text x="15" y="-4" class="nodelabel cell_flip_flop1[3]" s:attribute="ref">d_flip_flop</text>
    <rect width="30" height="40" s:generic="body" class="cell_flip_flop1[3]"/>
    <g transform="translate(0,10)" s:x="0" s:y="10" s:pid="in0" id="port_flip_flop1[3]~clk">
      <text x="-3" y="-4" class="inputPortLabel cell_flip_flop1[3]">clk</text>
    </g>
    <g transform="translate(0,30)" s:x="0" s:y="10" s:pid="in0" id="port_flip_flop1[3]~d">
      <text x="-3" y="-4" class="inputPortLabel cell_flip_flop1[3]">d</text>
    </g>
    <g transform="translate(30,10)" s:x="30" s:y="10" s:pid="out0" id="port_flip_flop1[3]~q">
      <text x="5" y="-4" style="fill:#000; stroke:none" class="cell_flip_flop1[3]">q</text>
    </g>
  </g>
  <g s:type="generic" transform="translate(424,408.5)" s:width="30" s:height="40" id="cell_flip_flop1[4]">
    <text x="15" y="-4" class="nodelabel cell_flip_flop1[4]" s:attribute="ref">d_flip_flop</text>
    <rect width="30" height="40" s:generic="body" class="cell_flip_flop1[4]"/>
    <g transform="translate(0,10)" s:x="0" s:y="10" s:pid="in0" id="port_flip_flop1[4]~clk">
      <text x="-3" y="-4" class="inputPortLabel cell_flip_flop1[4]">clk</text>
    </g>
    <g transform="translate(0,30)" s:x="0" s:y="10" s:pid="in0" id="port_flip_flop1[4]~d">
      <text x="-3" y="-4" class="inputPortLabel cell_flip_flop1[4]">d</text>
    </g>
    <g transform="translate(30,10)" s:x="30" s:y="10" s:pid="out0" id="port_flip_flop1[4]~q">
      <text x="5" y="-4" style="fill:#000; stroke:none" class="cell_flip_flop1[4]">q</text>
    </g>
  </g>
  <g s:type="generic" transform="translate(424,496.5)" s:width="30" s:height="40" id="cell_flip_flop1[5]">
    <text x="15" y="-4" class="nodelabel cell_flip_flop1[5]" s:attribute="ref">d_flip_flop</text>
    <rect width="30" height="40" s:generic="body" class="cell_flip_flop1[5]"/>
    <g transform="translate(0,10)" s:x="0" s:y="10" s:pid="in0" id="port_flip_flop1[5]~clk">
      <text x="-3" y="-4" class="inputPortLabel cell_flip_flop1[5]">clk</text>
    </g>
    <g transform="translate(0,30)" s:x="0" s:y="10" s:pid="in0" id="port_flip_flop1[5]~d">
      <text x="-3" y="-4" class="inputPortLabel cell_flip_flop1[5]">d</text>
    </g>
    <g transform="translate(30,10)" s:x="30" s:y="10" s:pid="out0" id="port_flip_flop1[5]~q">
      <text x="5" y="-4" style="fill:#000; stroke:none" class="cell_flip_flop1[5]">q</text>
    </g>
  </g>
  <g s:type="generic" transform="translate(424,584.5)" s:width="30" s:height="40" id="cell_flip_flop1[6]">
    <text x="15" y="-4" class="nodelabel cell_flip_flop1[6]" s:attribute="ref">d_flip_flop</text>
    <rect width="30" height="40" s:generic="body" class="cell_flip_flop1[6]"/>
    <g transform="translate(0,10)" s:x="0" s:y="10" s:pid="in0" id="port_flip_flop1[6]~clk">
      <text x="-3" y="-4" class="inputPortLabel cell_flip_flop1[6]">clk</text>
    </g>
    <g transform="translate(0,30)" s:x="0" s:y="10" s:pid="in0" id="port_flip_flop1[6]~d">
      <text x="-3" y="-4" class="inputPortLabel cell_flip_flop1[6]">d</text>
    </g>
    <g transform="translate(30,10)" s:x="30" s:y="10" s:pid="out0" id="port_flip_flop1[6]~q">
      <text x="5" y="-4" style="fill:#000; stroke:none" class="cell_flip_flop1[6]">q</text>
    </g>
  </g>
  <g s:type="generic" transform="translate(424,672.5)" s:width="30" s:height="40" id="cell_flip_flop1[7]">
    <text x="15" y="-4" class="nodelabel cell_flip_flop1[7]" s:attribute="ref">d_flip_flop</text>
    <rect width="30" height="40" s:generic="body" class="cell_flip_flop1[7]"/>
    <g transform="translate(0,10)" s:x="0" s:y="10" s:pid="in0" id="port_flip_flop1[7]~clk">
      <text x="-3" y="-4" class="inputPortLabel cell_flip_flop1[7]">clk</text>
    </g>
    <g transform="translate(0,30)" s:x="0" s:y="10" s:pid="in0" id="port_flip_flop1[7]~d">
      <text x="-3" y="-4" class="inputPortLabel cell_flip_flop1[7]">d</text>
    </g>
    <g transform="translate(30,10)" s:x="30" s:y="10" s:pid="out0" id="port_flip_flop1[7]~q">
      <text x="5" y="-4" style="fill:#000; stroke:none" class="cell_flip_flop1[7]">q</text>
    </g>
  </g>
  <g s:type="generic" transform="translate(96,87)" s:width="30" s:height="40" id="cell_genblk1.rising_edge_detector1">
    <text x="15" y="-4" class="nodelabel cell_genblk1.rising_edge_detector1" s:attribute="ref">edge_detector</text>
    <rect width="30" height="20" s:generic="body" class="cell_genblk1.rising_edge_detector1"/>
    <g transform="translate(0,10)" s:x="0" s:y="10" s:pid="in0" id="port_genblk1.rising_edge_detector1~clk">
      <text x="-3" y="-4" class="inputPortLabel cell_genblk1.rising_edge_detector1">clk</text>
    </g>
    <g transform="translate(30,10)" s:x="30" s:y="10" s:pid="out0" id="port_genblk1.rising_edge_detector1~pulse">
      <text x="5" y="-4" style="fill:#000; stroke:none" class="cell_genblk1.rising_edge_detector1">pulse</text>
    </g>
  </g>
  <g s:type="inputExt" transform="translate(96,155)" s:width="30" s:height="20" id="cell_data_in">
    <text x="15" y="-4" class="nodelabel cell_data_in" s:attribute="ref">data_in</text>
    <s:alias val="$_inputExt_"/>
    <path d="M0,0 L0,20 L15,20 L30,10 L15,0 Z" class="cell_data_in"/>
    <g s:x="28" s:y="10" s:pid="Y"/>
  </g>
  <g s:type="inputExt" transform="translate(96,22)" s:width="30" s:height="20" id="cell_enable">
    <text x="15" y="-4" class="nodelabel cell_enable" s:attribute="ref">enable</text>
    <s:alias val="$_inputExt_"/>
    <path d="M0,0 L0,20 L15,20 L30,10 L15,0 Z" class="cell_enable"/>
    <g s:x="28" s:y="10" s:pid="Y"/>
  </g>
  <g s:type="inputExt" transform="translate(12,87.5)" s:width="30" s:height="20" id="cell_clk">
    <text x="15" y="-4" class="nodelabel cell_clk" s:attribute="ref">clk</text>
    <s:alias val="$_inputExt_"/>
    <path d="M0,0 L0,20 L15,20 L30,10 L15,0 Z" class="cell_clk"/>
    <g s:x="28" s:y="10" s:pid="Y"/>
  </g>
  <g s:type="outputExt" transform="translate(585,271)" s:width="30" s:height="20" id="cell_data_out">
    <text x="15" y="-4" class="nodelabel cell_data_out" s:attribute="ref">data_out</text>
    <s:alias val="$_outputExt_"/>
    <path d="M30,0 L30,20 L15,20 L0,10 L15,0 Z" class="cell_data_out"/>
    <g s:x="0" s:y="10" s:pid="A"/>
  </g>
  <g s:type="join" transform="translate(542,260.5)" s:width="4" s:height="40" id="cell_$join$,12,13,14,15,16,17,18,19,">
    <rect width="5" height="160" class="splitjoinBody" s:generic="body"/>
    <s:alias val="$_join_"/>
    <g s:x="5" s:y="20" s:pid="out"/>
    <g transform="translate(0,10)" s:x="0" s:y="10" s:pid="in0">
      <text x="-3" y="-4" class="inputPortLabel">0</text>
    </g>
    <g transform="translate(0,30)" s:x="0" s:y="10" s:pid="in0">
      <text x="-3" y="-4" class="inputPortLabel">1</text>
    </g>
    <g transform="translate(0,50)" s:x="0" s:y="10" s:pid="in0">
      <text x="-3" y="-4" class="inputPortLabel">2</text>
    </g>
    <g transform="translate(0,70)" s:x="0" s:y="10" s:pid="in0">
      <text x="-3" y="-4" class="inputPortLabel">3</text>
    </g>
    <g transform="translate(0,90)" s:x="0" s:y="10" s:pid="in0">
      <text x="-3" y="-4" class="inputPortLabel">4</text>
    </g>
    <g transform="translate(0,110)" s:x="0" s:y="10" s:pid="in0">
      <text x="-3" y="-4" class="inputPortLabel">5</text>
    </g>
    <g transform="translate(0,130)" s:x="0" s:y="10" s:pid="in0">
      <text x="-3" y="-4" class="inputPortLabel">6</text>
    </g>
    <g transform="translate(0,150)" s:x="0" s:y="10" s:pid="in0">
      <text x="-3" y="-4" class="inputPortLabel">7</text>
    </g>
  </g>
  <g s:type="split" transform="translate(321.42857142857144,144.5)" s:width="5" s:height="40" id="cell_$split$,2,3,4,5,6,7,8,9,">
    <rect width="5" height="160" class="splitjoinBody" s:generic="body"/>
    <s:alias val="$_split_"/>
    <g s:x="0" s:y="20" s:pid="in"/>
    <g transform="translate(4,10)" s:x="4" s:y="10" s:pid="out0">
      <text x="5" y="-4">0</text>
    </g>
    <g transform="translate(4,30)" s:x="4" s:y="10" s:pid="out0">
      <text x="5" y="-4">1</text>
    </g>
    <g transform="translate(4,50)" s:x="4" s:y="10" s:pid="out0">
      <text x="5" y="-4">2</text>
    </g>
    <g transform="translate(4,70)" s:x="4" s:y="10" s:pid="out0">
      <text x="5" y="-4">3</text>
    </g>
    <g transform="translate(4,90)" s:x="4" s:y="10" s:pid="out0">
      <text x="5" y="-4">4</text>
    </g>
    <g transform="translate(4,110)" s:x="4" s:y="10" s:pid="out0">
      <text x="5" y="-4">5</text>
    </g>
    <g transform="translate(4,130)" s:x="4" s:y="10" s:pid="out0">
      <text x="5" y="-4">6</text>
    </g>
    <g transform="translate(4,150)" s:x="4" s:y="10" s:pid="out0">
      <text x="5" y="-4">7</text>
    </g>
  </g>
  <line x1="124" x2="305" y1="32" y2="32" class="net_10"/>
  <line x1="127" x2="280" y1="97.5" y2="97.5" class="net_20"/>
  <line x1="280" x2="280" y1="97.5" y2="47" class="net_20"/>
  <line x1="280" x2="305" y1="47" y2="47" class="net_20"/>
  <line x1="335" x2="424" y1="39.5" y2="39.5" class="net_21"/>
  <line x1="335" x2="395" y1="39.5" y2="39.5" class="net_21"/>
  <line x1="395" x2="395" y1="39.5" y2="155" class="net_21"/>
  <circle cx="395" cy="39.5" r="2" style="fill:#000" class="net_21"/>
  <circle cx="395" cy="155" r="2" style="fill:#000" class="net_21"/>
  <line x1="395" x2="424" y1="155" y2="155" class="net_21"/>
  <line x1="335" x2="395" y1="39.5" y2="39.5" class="net_21"/>
  <line x1="395" x2="395" y1="39.5" y2="243" class="net_21"/>
  <circle cx="395" cy="243" r="2" style="fill:#000" class="net_21"/>
  <line x1="395" x2="424" y1="243" y2="243" class="net_21"/>
  <line x1="335" x2="395" y1="39.5" y2="39.5" class="net_21"/>
  <line x1="395" x2="395" y1="39.5" y2="331" class="net_21"/>
  <circle cx="395" cy="331" r="2" style="fill:#000" class="net_21"/>
  <line x1="395" x2="424" y1="331" y2="331" class="net_21"/>
  <line x1="335" x2="395" y1="39.5" y2="39.5" class="net_21"/>
  <line x1="395" x2="395" y1="39.5" y2="419" class="net_21"/>
  <circle cx="395" cy="419" r="2" style="fill:#000" class="net_21"/>
  <line x1="395" x2="424" y1="419" y2="419" class="net_21"/>
  <line x1="335" x2="395" y1="39.5" y2="39.5" class="net_21"/>
  <line x1="395" x2="395" y1="39.5" y2="507" class="net_21"/>
  <circle cx="395" cy="507" r="2" style="fill:#000" class="net_21"/>
  <line x1="395" x2="424" y1="507" y2="507" class="net_21"/>
  <line x1="335" x2="395" y1="39.5" y2="39.5" class="net_21"/>
  <line x1="395" x2="395" y1="39.5" y2="595" class="net_21"/>
  <circle cx="395" cy="595" r="2" style="fill:#000" class="net_21"/>
  <line x1="395" x2="424" y1="595" y2="595" class="net_21"/>
  <line x1="335" x2="395" y1="39.5" y2="39.5" class="net_21"/>
  <line x1="395" x2="395" y1="39.5" y2="683" class="net_21"/>
  <line x1="395" x2="424" y1="683" y2="683" class="net_21"/>
  <line x1="325.92857142857144" x2="325.92857142857144" y1="154.5" y2="62" class="net_2"/>
  <line x1="325.92857142857144" x2="345" y1="62" y2="62" class="net_2"/>
  <line x1="345" x2="345" y1="62" y2="59.5" class="net_2"/>
  <line x1="345" x2="424" y1="59.5" y2="59.5" class="net_2"/>
  <line x1="326.42857142857144" x2="424" y1="175" y2="175" class="net_3"/>
  <line x1="326.42857142857144" x2="385" y1="195" y2="195" class="net_4"/>
  <line x1="385" x2="385" y1="195" y2="263" class="net_4"/>
  <line x1="385" x2="424" y1="263" y2="263" class="net_4"/>
  <line x1="326.42857142857144" x2="375" y1="215" y2="215" class="net_5"/>
  <line x1="375" x2="375" y1="215" y2="351" class="net_5"/>
  <line x1="375" x2="424" y1="351" y2="351" class="net_5"/>
  <line x1="326.42857142857144" x2="365" y1="235" y2="235" class="net_6"/>
  <line x1="365" x2="365" y1="235" y2="439" class="net_6"/>
  <line x1="365" x2="424" y1="439" y2="439" class="net_6"/>
  <line x1="326.42857142857144" x2="355" y1="255" y2="255" class="net_7"/>
  <line x1="355" x2="355" y1="255" y2="527" class="net_7"/>
  <line x1="355" x2="424" y1="527" y2="527" class="net_7"/>
  <line x1="326.42857142857144" x2="345" y1="275" y2="275" class="net_8"/>
  <line x1="345" x2="345" y1="275" y2="615" class="net_8"/>
  <line x1="345" x2="424" y1="615" y2="615" class="net_8"/>
  <line x1="325.92857142857144" x2="325.92857142857144" y1="295.5" y2="703" class="net_9"/>
  <line x1="325.92857142857144" x2="424" y1="703" y2="703" class="net_9"/>
  <line x1="40" x2="96" y1="97.5" y2="97.5" class="net_11"/>
  <line x1="548" x2="585" y1="281" y2="281" class="net_12,13,14,15,16,17,18,19" stroke-width="2"/>
  <line x1="555" x2="560" y1="286" y2="276" class="net_12,13,14,15,16,17,18,19" stroke-width="2"/>
  <text x="559" y="272" class="nodelabel">n</text>
  <line x1="455" x2="542.5" y1="39.5" y2="39.5" class="net_12"/>
  <line x1="542.5" x2="542.5" y1="39.5" y2="270.5" class="net_12"/>
  <line x1="455" x2="522" y1="155" y2="155" class="net_13"/>
  <line x1="522" x2="522" y1="155" y2="291" class="net_13"/>
  <line x1="522" x2="542" y1="291" y2="291" class="net_13"/>
  <line x1="455" x2="512" y1="243" y2="243" class="net_14"/>
  <line x1="512" x2="512" y1="243" y2="311" class="net_14"/>
  <line x1="512" x2="542" y1="311" y2="311" class="net_14"/>
  <line x1="455" x2="542" y1="331" y2="331" class="net_15"/>
  <line x1="455" x2="512" y1="419" y2="419" class="net_16"/>
  <line x1="512" x2="512" y1="419" y2="351" class="net_16"/>
  <line x1="512" x2="542" y1="351" y2="351" class="net_16"/>
  <line x1="455" x2="522" y1="507" y2="507" class="net_17"/>
  <line x1="522" x2="522" y1="507" y2="371" class="net_17"/>
  <line x1="522" x2="542" y1="371" y2="371" class="net_17"/>
  <line x1="455" x2="532" y1="595" y2="595" class="net_18"/>
  <line x1="532" x2="532" y1="595" y2="391" class="net_18"/>
  <line x1="532" x2="542" y1="391" y2="391" class="net_18"/>
  <line x1="455" x2="542.5" y1="683" y2="683" class="net_19"/>
  <line x1="542.5" x2="542.5" y1="683" y2="411.5" class="net_19"/>
  <line x1="124" x2="321.42857142857144" y1="165" y2="165" class="net_2,3,4,5,6,7,8,9" stroke-width="2"/>
  <line x1="300" x2="305" y1="170" y2="160" class="net_2,3,4,5,6,7,8,9" stroke-width="2"/>
  <text x="304" y="156" class="nodelabel">n</text>
</svg>
